<svg xmlns="http://www.w3.org/2000/svg" viewBox="0 0 32 32" role="img" aria-label="PayPal">
  <path fill="#003087" d="M12.3 5h8.1c4.7 0 6.6 2.4 6.1 5.8-.7 4.8-3.8 7.5-8.4 7.5h-2.2c-.7 0-1.2.5-1.3 1.2l-.8 5.3H9.2L12.3 5Z"/>
  <path fill="#009cde" d="M15.5 9.2h7c3.8 0 5.4 2 4.9 4.8-.6 4-3.2 6.3-7 6.3h-1.8c-.6 0-1 .4-1.1 1l-.9 5.7h-4l2.9-17.8Z" opacity=".9"/>
  <path fill="#012169" d="M8.2 5h8c4.1 0 6 2 5.5 5.1-.6 4.1-3.3 6.4-7.3 6.4h-2c-.6 0-1.1.5-1.2 1.1l-1.1 7.2H5.5L8.2 5Zm4.4 4-1 6h2c2 0 3.4-1.1 3.7-3.2.3-1.8-.6-2.8-2.7-2.8h-2Z"/>
</svg>
